<?xml version="1.0" encoding="UTF-8"?>
<svg xmlns="http://www.w3.org/2000/svg" viewBox="0 0 1200 630" width="1200" height="630">
  <defs>
    <linearGradient id="bg" x1="0" y1="0" x2="1" y2="1">
      <stop offset="0" stop-color="#051026"/>
      <stop offset="1" stop-color="#05060a"/>
    </linearGradient>
    <linearGradient id="acc" x1="0" y1="0" x2="1" y2="0">
      <stop offset="0" stop-color="#00ffff" stop-opacity="0.9"/>
      <stop offset="1" stop-color="#3ea1ff" stop-opacity="0.9"/>
    </linearGradient>
    <filter id="glow" x="-20%" y="-20%" width="140%" height="140%">
      <feGaussianBlur stdDeviation="6" result="b"/>
      <feMerge><feMergeNode in="b"/><feMergeNode in="SourceGraphic"/></feMerge>
    </filter>
  </defs>

  <rect width="1200" height="630" fill="url(#bg)"/>

  <!-- Subtle grid -->
  <g opacity="0.08" stroke="#3ea1ff" stroke-width="1">
    <line x1="0" y1="80" x2="1200" y2="80"/>
    <line x1="0" y1="160" x2="1200" y2="160"/>
    <line x1="0" y1="240" x2="1200" y2="240"/>
    <line x1="0" y1="320" x2="1200" y2="320"/>
    <line x1="0" y1="400" x2="1200" y2="400"/>
    <line x1="0" y1="480" x2="1200" y2="480"/>
    <line x1="0" y1="560" x2="1200" y2="560"/>
  </g>

  <!-- Logo checkmark -->
  <g filter="url(#glow)">
    <path d="M120 330l90 90L1080 200" stroke="url(#acc)" stroke-width="14" fill="none" stroke-linecap="round" stroke-linejoin="round"/>
  </g>

  <!-- Title -->
  <text x="60" y="510" fill="#cfe3ff" font-family="ui-monospace, SFMono-Regular, Menlo, Consolas, monospace" font-size="56" font-weight="700">Night Dork Ops</text>

  <!-- Subtitle -->
  <text x="60" y="558" fill="#9fb7ff" font-family="ui-monospace, SFMono-Regular, Menlo, Consolas, monospace" font-size="22">Modern OSINT Dork &amp; Recon Toolkit</text>
  <text x="60" y="588" fill="#7c8899" font-family="ui-monospace, SFMono-Regular, Menlo, Consolas, monospace" font-size="20">230+ dorks  ·  35+ engines  ·  18 categories  ·  single HTML file</text>

  <!-- Severity dots -->
  <g transform="translate(950, 540)">
    <circle r="9" fill="#ff5c7a"/>
    <circle r="9" cx="28" fill="#ff9a3e"/>
    <circle r="9" cx="56" fill="#ffdb6e"/>
    <circle r="9" cx="84" fill="#3ea1ff"/>
    <circle r="9" cx="112" fill="#5a6b85"/>
  </g>

  <!-- Engines hint -->
  <text x="950" y="588" fill="#7c8899" font-family="ui-monospace, SFMono-Regular, Menlo, Consolas, monospace" font-size="14" text-anchor="start">crit · high · med · low · info</text>
</svg>
